# xmcd
#
# Track frame offsets:
#	150
#	13541
#	24196
#	36055
#	47088
#	61293
#	75970
#	89730
#	104857
#	116585
#
# Disc length: 1761 seconds
#
# Revision: 1
# Processed by: cddbd v1.5.1PL0 Copyright (c) Steve Scherf et al.
# Submitted via: audiograbber 1.83.01
#
DISCID=7606df0a
DTITLE=John Lee Hooker - Hooker's Blues (Grammercy Records) 
DYEAR=2003
DGENRE=Blues
TTITLE0=Shake, Holler and Run
TTITLE1=Gotta Boogie
TTITLE2=I'm Ready
TTITLE3=Jump Me (One More Time)
TTITLE4=Cool Little Car
TTITLE5=It's Been A Long Time, Baby
TTITLE6=Taxi Driver
TTITLE7=Half A Stranger
TTITLE8=Love Money Can't Buy
TTITLE9=Baby, You Ain't No Good
EXTD=2003 Grammercy Records, Division of Audio On Demand Corportation, U.S.A.\n
EXTT0=
EXTT1=
EXTT2=
EXTT3=
EXTT4=
EXTT5=
EXTT6=
EXTT7=
EXTT8=
EXTT9=
PLAYORDER=
